<svg xmlns="http://www.w3.org/2000/svg" width="639.332" height="951.815" viewBox="0 0 639.332 951.815">
    <defs>
        <style>
            .cls-1{fill:gold}.cls-2{fill:none}.cls-3{fill:#fda600}
        </style>
    </defs>
    <g id="그룹_35" data-name="그룹 35">
        <path id="패스_348" d="M316.147 357.344l35.3 18.448 35.21-18.623-6.636 39.275 28.592 27.732L369.212 430l-17.54 35.762-17.717-35.675-39.432-5.63 28.454-27.874z" class="cls-1" data-name="패스 348" transform="translate(190.856 190.492)"/>
        <path id="패스_349" d="M239.678 292.049l35.3 18.448 35.21-18.623-6.636 39.275 28.592 27.732-39.4 5.826-17.544 35.762-17.717-35.675-39.432-5.63 28.454-27.874z" class="cls-1" data-name="패스 349" transform="translate(-218.055 -158.669)"/>
        <path id="패스_350" d="M235.317 359.869l24.667 12.89 24.6-13.012-4.637 27.443 19.978 19.378-27.533 4.07-12.252 24.989-12.38-24.927-27.553-3.934 19.882-19.477z" class="cls-1" data-name="패스 350" transform="translate(-206.544 204.272)"/>
        <path id="패스_351" d="M321.328 409.009L346 421.9l24.6-13.013-4.637 27.443 19.978 19.378-27.533 4.07-12.256 24.989-12.38-24.927-27.553-3.934L326.1 436.43z" class="cls-1" data-name="패스 351" transform="translate(253.392 467.048)"/>
        <g id="그룹_32" data-name="그룹 32" transform="translate(13.248 691.419)">
            <path id="패스_352" d="M301.9 465.935a24.228 24.228 0 0 0 11.559-2.533 21.183 21.183 0 0 0 7.7-6.931 29.758 29.758 0 0 0 4.291-10.346 57.536 57.536 0 0 0 1.326-12.543 63.323 63.323 0 0 0-1.326-13.095 34.687 34.687 0 0 0-4.291-11.114 23.781 23.781 0 0 0-7.7-7.813 21.319 21.319 0 0 0-11.559-2.971" class="cls-2" data-name="패스 352" transform="translate(217.066 -279.439)"/>
            <path id="패스_353" d="M322.854 398.589a21.743 21.743 0 0 0-11.775 2.971 22.761 22.761 0 0 0-7.592 7.813 36.431 36.431 0 0 0-4.183 11.114 63.751 63.751 0 0 0-1.32 13.095 57.923 57.923 0 0 0 1.32 12.543 31.165 31.165 0 0 0 4.183 10.346 20.273 20.273 0 0 0 7.592 6.931 24.729 24.729 0 0 0 11.775 2.533" class="cls-2" data-name="패스 353" transform="translate(196.115 -279.439)"/>
            <path id="패스_354" d="M228.326 388.083v40.5a13.062 13.062 0 0 1-.66 4.183l32.8.216v-44.899z" class="cls-2" data-name="패스 354" transform="translate(-179.908 -335.619)"/>
            <path id="패스_355" d="M238.311 392.556a15.158 15.158 0 0 0 4.513 11.051 15.172 15.172 0 0 0 18.928 2.253 15.541 15.541 0 0 0 5.611-6.265h4.843v-7.039z" class="cls-1" data-name="패스 355" transform="translate(-122.985 -311.7)"/>
            <path id="패스_356" d="M238.311 385.656a14.524 14.524 0 0 0 4.513 10.739 14.952 14.952 0 0 0 10.892 4.443 15.292 15.292 0 0 0 13.647-8.143h4.843v-7.039z" class="cls-1" data-name="패스 356" transform="translate(-122.985 -348.597)"/>
            <path id="패스_357" d="M300.7 467.28v-7.046l-32.8-.216a13.064 13.064 0 0 0 .66-4.183v-40.5h32.14v-7.046l-32.137-.216v-20.688l-45.993-4.4h-.222a1.949 1.949 0 0 0-2.2 2.2 2.076 2.076 0 0 0 .552 1.32 1.773 1.773 0 0 0 1.428.66l12.1 1.32v89.353a86.643 86.643 0 0 0 10.784-1.98 63.615 63.615 0 0 0 9.356-3.193 31.574 31.574 0 0 0 8.7-5.389z" class="cls-1" data-name="패스 357" transform="translate(-220.142 -362.874)"/>
            <path id="패스_358" d="M244.7 460.234v17.608a86.475 86.475 0 0 0 17.164-3.961 38.094 38.094 0 0 0 11.774-6.6 14.084 14.084 0 0 0 5.4-11.444v-68.45l-46-4.4h-.222a1.944 1.944 0 0 0-2.2 2.2 2.066 2.066 0 0 0 .546 1.32 1.786 1.786 0 0 0 1.435.66l12.1 1.32v71.745z" class="cls-3" data-name="패스 358" transform="translate(-164.144 -362.874)"/>
            <path id="패스_359" d="M255.517 463.01v26.633a87.544 87.544 0 0 0 17.17-3.961 38.18 38.18 0 0 0 11.774-6.607 14.069 14.069 0 0 0 5.389-11.445V385.1l-46-4.405h-.216a1.946 1.946 0 0 0-2.2 2.2 2.063 2.063 0 0 0 .552 1.32 1.764 1.764 0 0 0 1.428.66l12.1 1.32v76.81z" class="cls-3" data-name="패스 359" transform="translate(-106.296 -375.114)"/>
            <path id="패스_360" d="M331.407 391.6h-71.529v3.967l9.464 5.281 9.464-5.281h15.627q-.229 4.618-.444 12.65t-1.428 18.052a176.949 176.949 0 0 1-3.961 21.124 129.258 129.258 0 0 1-7.6 21.9 98.136 98.136 0 0 1-12.435 20.47 72.626 72.626 0 0 1-18.814 16.726l2.418 3.961q7.922-3.294 16.84-7.7a171.526 171.526 0 0 0 17.386-9.9 112.3 112.3 0 0 0 15.627-12.219 64.93 64.93 0 0 0 11.778-14.639l3.079-6.6a86.031 86.031 0 0 0 4.843-13.647 89.992 89.992 0 0 0 2.31-11.222q.99-6.608 1.758-13.539t1.219-13.64q.428-6.713.654-11.775h35.653V391.6h.222l-14.967-7.922z" class="cls-1" data-name="패스 360" transform="translate(-61.795 -359.169)"/>
            <path id="패스_361" d="M265.252 395.308q2.647 2.418 4.843 4.291a423.76 423.76 0 0 0 3.523 2.971 13.1 13.1 0 0 0 9.242 2.97 26.776 26.776 0 0 0 10.454-2.2 14.957 14.957 0 0 0 6.931-5.611q2.2-3.514-1.1-7.261-6.608-7.046-14.307-9.026a45.436 45.436 0 0 0-14.3-1.542 49.993 49.993 0 0 0-15.411 3.961 49.539 49.539 0 0 0 4.843 6.163q2.638 2.863 5.282 5.284z" class="cls-1" data-name="패스 361" transform="translate(-33.058 -379.817)"/>
            <path id="패스_362" d="M310.659 451.355v-65.149l-41.6-4.4h-.216c-1.472 0-2.2.66-2.2 1.98a2.151 2.151 0 0 0 1.98 2.2l12.1 1.32v165.513a69.469 69.469 0 0 0 14.967-3.967 35.313 35.313 0 0 0 10.346-6.709 14.749 14.749 0 0 0 4.621-11.336v-72.412h16.287v-7.039z" class="cls-1" data-name="패스 362" transform="translate(28.501 -369.179)"/>
            <path id="패스_363" d="M265.5 418.656q2.97 6.941 5.941 13.869t5.4 12.656a62.57 62.57 0 0 0 3.523 7.477 11.6 11.6 0 0 0 5.5 3.745 16.557 16.557 0 0 0 8.252.991 13.3 13.3 0 0 0 7.7-3.853q3.418-3.294 3.853-10.784.219-6.6-4.951-14.085a114.572 114.572 0 0 0-12-14.522 151.356 151.356 0 0 0-13.644-12.55q-6.817-5.494-9.9-8.144a86.024 86.024 0 0 1-4.843 13.647q2.197 4.628 5.169 11.553z" class="cls-3" data-name="패스 363" transform="translate(-5.246 -306.882)"/>
            <path id="패스_364" d="M276.123 380.732q-2.2 0-2.2 1.98a2.157 2.157 0 0 0 1.987 2.2l12.1 1.32v185.537a69.823 69.823 0 0 0 14.967-3.961 35.427 35.427 0 0 0 10.34-6.716 14.744 14.744 0 0 0 4.627-11.336V385.131l-41.6-4.4z" class="cls-3" data-name="패스 364" transform="translate(67.435 -374.927)"/>
            <path id="패스_365" d="M306.42 392.348c-.438.26-.889.47-1.327.724v7.628c.742-.438 1.5-.876 2.2-1.314z" class="cls-3" data-name="패스 365" transform="translate(234.124 -312.812)"/>
            <path id="패스_366" d="M341.242 401.879v-5.5l-18.49-8.364-18.487 8.364H292.16v5.5z" class="cls-1" data-name="패스 366" transform="translate(164.965 -335.991)"/>
            <path id="사각형_37" d="M0 0h8.14v5.502H0z" class="cls-1" data-name="사각형 37" transform="translate(448.984 60.387)"/>
            <path id="패스_367" d="M333.748 496.8c.121-.038.254-.076.381-.121a38.037 38.037 0 0 0 11.775-6.6 14.079 14.079 0 0 0 5.389-11.444V385.1l-45.993-4.4h-.222a1.949 1.949 0 0 0-2.2 2.2 2.063 2.063 0 0 0 .552 1.32 1.772 1.772 0 0 0 1.428.66l12.1 1.32v69.174c.438-.254.889-.463 1.327-.724l.876 7.039c-.7.438-1.46.876-2.2 1.314v27.135a76.013 76.013 0 0 1 8.7 2.806 63.916 63.916 0 0 1 8.087 3.856z" class="cls-3" data-name="패스 367" transform="translate(222.258 -375.114)"/>
            <path id="패스_368" d="M398.262 455.037a108.963 108.963 0 0 1-18.484 5.725 179.257 179.257 0 0 1-21.791 3.3q-11.777 1.1-26.519 1.1V433.03h-8.144v-5.5h8.144v-33.9h50.176v-3.96l-18.484-7.484-18.49 7.484h-57.658a2.021 2.021 0 0 0-1.65.66 2.076 2.076 0 0 0-.552 1.32c0 1.32.73 1.98 2.2 1.98h8.366v73.509a11.007 11.007 0 0 0 1.1 3.961 7.518 7.518 0 0 0 2.64 2.647 9.59 9.59 0 0 0 5.065 1.1h27.288a202.753 202.753 0 0 0 27.84-1.758 167.148 167.148 0 0 0 23-4.735 131.526 131.526 0 0 0 18.706-6.824c4.646-2.139 8.81-4.31 12.542-6.5v-7.63a129.217 129.217 0 0 1-15.295 7.637z" class="cls-1" data-name="패스 368" transform="translate(125.657 -367.142)"/>
            <path id="패스_369" d="M351.222 471.5a24.729 24.729 0 0 1-11.774-2.532 20.272 20.272 0 0 1-7.592-6.931 31.166 31.166 0 0 1-4.183-10.346 57.923 57.923 0 0 1-1.32-12.543 63.752 63.752 0 0 1 1.32-13.095 36.435 36.435 0 0 1 4.183-11.114 22.764 22.764 0 0 1 7.592-7.813 21.745 21.745 0 0 1 11.774-2.971v-6.6a77.1 77.1 0 0 0-20.356 2.862 68.855 68.855 0 0 0-18.928 8.251 48.31 48.31 0 0 0-13.863 13.1 29.566 29.566 0 0 0-5.4 17.385 28.4 28.4 0 0 0 4.621 15.735 41.863 41.863 0 0 0 12.549 12.327 64.229 64.229 0 0 0 18.6 8.036 87.754 87.754 0 0 0 22.774 2.863V471.5z" class="cls-1" data-name="패스 369" transform="translate(167.747 -285)"/>
            <path id="패스_370" d="M356.706 424.176a40.7 40.7 0 0 0-10.34-12.435 54.3 54.3 0 0 0-7.426-5.052 87.5 87.5 0 0 1-16.789 3.846v-10.511a84.481 84.481 0 0 0-10.562-2.037q-2.428-.219-4.843-.33c-1.612-.07-3.231-.108-4.843-.108v6.6a21.32 21.32 0 0 1 11.559 2.971 23.783 23.783 0 0 1 7.7 7.813 34.687 34.687 0 0 1 4.291 11.114 63.324 63.324 0 0 1 1.326 13.095 57.536 57.536 0 0 1-1.326 12.543 29.755 29.755 0 0 1-4.291 10.346 21.181 21.181 0 0 1-7.7 6.931A24.228 24.228 0 0 1 301.9 471.5v6.6a87.839 87.839 0 0 0 22.781-2.863 64.3 64.3 0 0 0 18.6-8.036 41.834 41.834 0 0 0 12.543-12.327 28.355 28.355 0 0 0 4.627-15.735 31.453 31.453 0 0 0-3.745-14.963z" class="cls-3" data-name="패스 370" transform="translate(217.066 -285)"/>
            <path id="패스_371" d="M321.882 404.6a63.949 63.949 0 0 0-8.093-3.859 76.063 76.063 0 0 0-8.7-2.806v10.515a87.514 87.514 0 0 0 16.793-3.85z" class="cls-3" data-name="패스 371" transform="translate(234.124 -282.915)"/>
            <path id="패스_372" d="M227.042 398.936v4.182l18.488 8.583 18.487-8.583h33.233v-4.182z" class="cls-1" data-name="패스 372" transform="translate(-183.244 -277.585)"/>
            <path id="패스_373" d="M260.993 419.3H238.1v4.182h72.41V419.3l-24.87-11.665z" class="cls-3" data-name="패스 373" transform="translate(-124.097 -231.046)"/>
            <path id="패스_374" d="M273.978 438.739h34.334v-32.573l-18.487-8.583-18.489 8.583H238.1v4.182h35.875v24.209H238.1v4.182z" class="cls-3" data-name="패스 374" transform="translate(-124.097 -284.815)"/>
            <path id="패스_375" d="M275.779 441.925a3.459 3.459 0 0 1-3.523-1.98 4.85 4.85 0 0 1-.438-2.2v-30.159h27.287v-4.177H228.9a2.2 2.2 0 1 0 0 4.4h6.6v24.653a18.656 18.656 0 0 0 1.542 6.823 11.655 11.655 0 0 0 3.853 4.729q2.751 2.1 8.036 2.088h50.176v-4.177z" class="cls-1" data-name="패스 375" transform="translate(-185.101 -253.665)"/>
        </g>
        <g id="그룹_33" data-name="그룹 33" transform="translate(61.182 158.464)">
            <path id="패스_376" d="M350.473 676.747c-80.5-61.817-95.7-177.606-33.882-258.11a184.081 184.081 0 0 1 258.1-33.882l20.14 15.469 30.925-40.281-20.131-15.463a234.854 234.854 0 1 0-143.3 421.035c.279 0 .565-.025.844-.025V714.8a182.638 182.638 0 0 1-112.696-38.053z" class="cls-1" data-name="패스 376" transform="translate(-227.694 -295.853)"/>
            <path id="패스_377" d="M450.033 333.17l-3.713 25.117a184.167 184.167 0 0 1-158.145 155.422 186.12 186.12 0 0 1-23.384 1.542v50.69c70.259-.254 139.693-31.794 185.693-91.7a234.994 234.994 0 0 0 46.069-108.534l3.713-25.117z" class="cls-3" data-name="패스 377" transform="translate(-29.321 -96.305)"/>
        </g>
        <g id="그룹_34" data-name="그룹 34" transform="translate(249.837)">
            <path id="패스_378" d="M421.227 270.888l50.621 102.568 113.19 16.444-81.906 79.838 19.335 112.734-101.24-53.222-101.241 53.226 19.335-112.734-81.906-79.842 113.191-16.448z" class="cls-1" data-name="패스 378" transform="translate(-257.415 -270.888)"/>
            <path id="패스_379" d="M283.223 342.633l163.812-53-81.906 79.838 19.335 112.739z" class="cls-3" data-name="패스 379" transform="translate(-119.412 -170.622)"/>
            <path id="패스_380" d="M283.223 270.888V442.9l50.621-69.443z" class="cls-3" data-name="패스 380" transform="translate(-119.412 -270.888)"/>
            <path id="패스_381" d="M267.273 437.564l101.241-139.577v86.351z" class="cls-3" data-name="패스 381" transform="translate(-204.703 -125.976)"/>
        </g>
    </g>
</svg>
